<mxfile host="app.diagrams.net" modified="2022-11-08T23:09:25.234Z" agent="5.0 (X11; Linux x86_64) AppleWebKit/537.36 (KHTML, like Gecko) Chrome/106.0.0.0 Safari/537.36 OPR/92.0.0.0" etag="lgYfHXG0SScbvcXVhOD8" version="20.5.3" type="github">
  <diagram id="5OLkjjOhH-p-Rxp2J72V" name="Página-1">
    <mxGraphModel dx="828" dy="452" grid="1" gridSize="10" guides="1" tooltips="1" connect="1" arrows="1" fold="1" page="1" pageScale="1" pageWidth="827" pageHeight="1169" math="0" shadow="0">
      <root>
        <mxCell id="0" />
        <mxCell id="1" parent="0" />
        <mxCell id="pnu31OZSbeLJtUsavGSy-3" value="" style="rounded=0;whiteSpace=wrap;html=1;fillColor=#e1d5e7;strokeColor=#9673a6;" vertex="1" parent="1">
          <mxGeometry x="60" y="40" width="660" height="410" as="geometry" />
        </mxCell>
        <mxCell id="pnu31OZSbeLJtUsavGSy-25" value="&lt;h3 style=&quot;color: var(--h3_typography-color); box-sizing: border-box; margin-top: var(--h3_typography-margin-top); margin-bottom: var(--h3_typography-margin-bottom); overflow-wrap: break-word; font-family: &amp;quot;Fira Sans&amp;quot;, Arial, Helvetica, sans-serif; font-weight: var(--h3_typography-font-weight); line-height: 1.45; text-align: start; --fontSize:40;&quot; class=&quot;fusion-responsive-typography-calculated&quot; data-lineheight=&quot;58px&quot; data-fontsize=&quot;40&quot;&gt;&lt;span style=&quot;box-sizing: border-box;&quot; dir=&quot;auto&quot;&gt;&lt;font style=&quot;font-size: 14px;&quot;&gt;NX8048T070&lt;/font&gt;&lt;/span&gt;&lt;/h3&gt;" style="rounded=1;whiteSpace=wrap;html=1;labelBackgroundColor=none;fontSize=14;" vertex="1" parent="1">
          <mxGeometry x="335" y="410" width="110" height="40" as="geometry" />
        </mxCell>
        <mxCell id="pnu31OZSbeLJtUsavGSy-20" value="" style="rounded=1;whiteSpace=wrap;html=1;fillColor=#fff2cc;strokeColor=#d6b656;" vertex="1" parent="1">
          <mxGeometry x="520" y="50" width="180" height="220" as="geometry" />
        </mxCell>
        <mxCell id="pnu31OZSbeLJtUsavGSy-18" value="" style="rounded=1;whiteSpace=wrap;html=1;fillColor=#dae8fc;strokeColor=#6c8ebf;" vertex="1" parent="1">
          <mxGeometry x="90" y="50" width="180" height="220" as="geometry" />
        </mxCell>
        <mxCell id="pnu31OZSbeLJtUsavGSy-5" value="Z" style="rounded=0;whiteSpace=wrap;html=1;" vertex="1" parent="1">
          <mxGeometry x="130" y="200" width="120" height="60" as="geometry" />
        </mxCell>
        <mxCell id="pnu31OZSbeLJtUsavGSy-6" value="Y" style="rounded=0;whiteSpace=wrap;html=1;" vertex="1" parent="1">
          <mxGeometry x="130" y="130" width="120" height="60" as="geometry" />
        </mxCell>
        <mxCell id="pnu31OZSbeLJtUsavGSy-7" value="X" style="rounded=0;whiteSpace=wrap;html=1;" vertex="1" parent="1">
          <mxGeometry x="130" y="60" width="120" height="60" as="geometry" />
        </mxCell>
        <mxCell id="pnu31OZSbeLJtUsavGSy-11" value="Grafico Acelerometro X Y Z" style="rounded=0;whiteSpace=wrap;html=1;" vertex="1" parent="1">
          <mxGeometry x="280" y="50" width="220" height="110" as="geometry" />
        </mxCell>
        <mxCell id="pnu31OZSbeLJtUsavGSy-12" value="Grafico Giroscopio X Y Z" style="rounded=0;whiteSpace=wrap;html=1;" vertex="1" parent="1">
          <mxGeometry x="280" y="165" width="220" height="110" as="geometry" />
        </mxCell>
        <mxCell id="pnu31OZSbeLJtUsavGSy-13" value="GPS" style="rounded=0;whiteSpace=wrap;html=1;" vertex="1" parent="1">
          <mxGeometry x="495" y="300" width="210" height="110" as="geometry" />
        </mxCell>
        <mxCell id="pnu31OZSbeLJtUsavGSy-14" value="Temperatura&amp;nbsp;" style="rounded=0;whiteSpace=wrap;html=1;" vertex="1" parent="1">
          <mxGeometry x="85" y="300" width="210" height="110" as="geometry" />
        </mxCell>
        <mxCell id="pnu31OZSbeLJtUsavGSy-15" value="Z" style="rounded=0;whiteSpace=wrap;html=1;" vertex="1" parent="1">
          <mxGeometry x="540" y="200" width="120" height="60" as="geometry" />
        </mxCell>
        <mxCell id="pnu31OZSbeLJtUsavGSy-16" value="Y" style="rounded=0;whiteSpace=wrap;html=1;" vertex="1" parent="1">
          <mxGeometry x="540" y="130" width="120" height="60" as="geometry" />
        </mxCell>
        <mxCell id="pnu31OZSbeLJtUsavGSy-17" value="X" style="rounded=0;whiteSpace=wrap;html=1;" vertex="1" parent="1">
          <mxGeometry x="540" y="60" width="120" height="60" as="geometry" />
        </mxCell>
        <mxCell id="pnu31OZSbeLJtUsavGSy-22" value="Acelerômetro" style="text;html=1;strokeColor=none;fillColor=none;align=center;verticalAlign=middle;whiteSpace=wrap;rounded=0;rotation=-90;" vertex="1" parent="1">
          <mxGeometry x="80" y="145" width="60" height="30" as="geometry" />
        </mxCell>
        <mxCell id="pnu31OZSbeLJtUsavGSy-23" value="Giroscópio" style="text;html=1;strokeColor=none;fillColor=none;align=center;verticalAlign=middle;whiteSpace=wrap;rounded=0;rotation=90;" vertex="1" parent="1">
          <mxGeometry x="650" y="145" width="60" height="30" as="geometry" />
        </mxCell>
      </root>
    </mxGraphModel>
  </diagram>
</mxfile>
